# xmcd CD database file
#
# Track frame offsets:
#	150
#	21947
#	30785
#	40972
#	66532
#	72405
#	92082
#	112837
#	121802
#	142800
#	158115
#	178807
#	191612
#	206545
#	230030
#	251430
#
# Disc length: 3523 seconds
#
# Revision: 0
# Processed by: cddbd v1.5.2PL0 Copyright (c) Steve Scherf et al.
# Submitted via: CDex 1.70beta2
#
DISCID=d90dc110
DTITLE=Various Artist - Materiali Sonori guide to intelligent music
DYEAR=1900
DGENRE=New Age
TTITLE0=Luis Rizzo Cuarteto - Tristesse
TTITLE1=Wim Mertens - Far
TTITLE2=The Durutti Column - Out of the blue
TTITLE3=Cudu - Sonata per gabbiano
TTITLE4=Arturo Stalteri - Broadwood
TTITLE5=Fabio Capanni - Love beast
TTITLE6=Drem Bruinsma - All but one
TTITLE7=Paolo Lotti - Darkness
TTITLE8=Harmonia Ensemble - Buongiorno nino
TTITLE9=Controlled Bleeding - The peacock
TTITLE10=Novalia - Descrizione di una battaglia
TTITLE11=Roedelius - Leicht gemacht
TTITLE12=Beau Geste - Solstizio d' estate
TTITLE13=Militia - Dunarobba
TTITLE14=Steven Brown and Blaine L. Reininger - Iberia
TTITLE15=Arlo Bigazzi, Paolo Lotti and Stefano Saletti - Pretoria way
EXTD=
EXTT0=
EXTT1=
EXTT2=
EXTT3=
EXTT4=
EXTT5=
EXTT6=
EXTT7=
EXTT8=
EXTT9=
EXTT10=
EXTT11=
EXTT12=
EXTT13=
EXTT14=
EXTT15=
PLAYORDER=
